<?xml version="1.0" encoding="utf-8"?>
<!-- Generator: Adobe Illustrator 21.1.0, SVG Export Plug-In . SVG Version: 6.00 Build 0)  -->
<svg version="1.1" id="Layer_1" xmlns="http://www.w3.org/2000/svg" xmlns:xlink="http://www.w3.org/1999/xlink" x="0px" y="0px"
	 viewBox="0 0 520.2 161.1" style="enable-background:new 0 0 520.2 161.1;" xml:space="preserve">
<style type="text/css">
	.st0{clip-path:url(#SVGID_2_);}
</style>
<title>ecal_logo</title>
<g>
	<g>
		<defs>
			<rect id="SVGID_1_" width="520.2" height="161.1"/>
		</defs>
		<clipPath id="SVGID_2_">
			<use xlink:href="#SVGID_1_"  style="overflow:visible;"/>
		</clipPath>
		<g class="st0">
			<path d="M488.6,158h31.6V0h-31.6V158z M315.3,77.2c0.5-5.4,2-8.8,5.4-11.7c3.8-3.2,9.2-4.7,16-4.7c12.9,0,19.6,5.2,19.6,13.8
				c0,6.3-2.5,9.2-10.8,10.4l-5.2,0.7c-24.8,3.6-59.4,8.3-59.4,39c0,22.6,19.4,36.6,44.2,36.6c20.3,0,29.3-7.2,34.8-12.4h0.2
				l0.7,9.2h28.7v-0.7c-2-3.6-2.7-7.7-2.7-15.4V87.6c0-11.1-0.9-18-2.7-23.7c-6.1-19.2-26.4-25.7-46.5-25.7c-28.2,0-49.4,12-51,38.6
				L315.3,77.2z M331.8,138.6c-12,0-19.4-5.2-19.4-14.9c0-3.4,1.3-6.6,3.6-9c3.2-3.2,9.2-5.2,17.8-7.4l7-1.8c8.1-2,14-3.6,16.7-4.7
				V115c0,5.6-0.5,7.7-1.1,9.7C352.7,134.8,341.9,138.6,331.8,138.6 M235.8,80.6c-3.2-25.5-24.1-42.4-53.3-42.4
				c-36.8,0-59.6,25.5-59.6,61.4c0,36.8,21.2,61.4,59.4,61.4c30.2,0,49.9-17.1,54.4-42.4H206c-2.7,9.2-8.6,18.1-23,18.1
				c-16.5,0-27.5-11.3-27.5-36.8c0-24.4,10.6-37.5,26.9-37.5c13.5,0,20.5,9,22.3,18.3L235.8,80.6z M58.5,61.2
				c15.8,0,25.5,11.1,26,26h-52C33.8,72.3,43.3,61.2,58.5,61.2 M82.9,124.2c-3.4,6.3-10.2,12.6-22.8,12.6c-14.4,0-26.4-8.6-28-28.9
				h84.2V105c0-38.1-19-66.8-57.8-66.8C22.8,38.1,0,64.6,0,99.5s21.7,61.4,59.6,61.4c28,0,47.2-14.7,55.3-36.8L82.9,124.2z M94.6,0
				H56.2L40.8,29.1H69L94.6,0z"/>
		</g>
	</g>
</g>
</svg>
